<svg width="40" height="41" viewBox="0 0 40 41" fill="none" xmlns="http://www.w3.org/2000/svg">
<path d="M12.5 7.6562V10.1562H36.25V15.105L33.4766 23.9062H11.7134L8.58844 1.40315H1.25V3.90315H6.41156L9.53656 26.4062H35.31L38.75 15.4896V7.6562H12.5ZM13.8269 28.93C12.5013 28.9315 11.2304 29.4588 10.293 30.3962C9.35565 31.3335 8.82838 32.6044 8.82688 33.93C8.82688 35.2561 9.35366 36.5279 10.2913 37.4656C11.229 38.4032 12.5008 38.93 13.8269 38.93C15.153 38.93 16.4247 38.4032 17.3624 37.4656C18.3001 36.5279 18.8269 35.2561 18.8269 33.93C18.8254 32.6044 18.2981 31.3335 17.3608 30.3961C16.4234 29.4588 15.1525 28.9315 13.8269 28.93ZM13.8269 36.43C13.3324 36.43 12.8491 36.2834 12.4379 36.0087C12.0268 35.734 11.7064 35.3436 11.5172 34.8867C11.328 34.4299 11.2784 33.9273 11.3749 33.4423C11.4714 32.9573 11.7095 32.5119 12.0591 32.1623C12.4087 31.8126 12.8542 31.5745 13.3391 31.4781C13.8241 31.3816 14.3268 31.4311 14.7836 31.6203C15.2404 31.8095 15.6308 32.13 15.9056 32.5411C16.1803 32.9522 16.3269 33.4356 16.3269 33.93C16.3261 34.5928 16.0624 35.2283 15.5938 35.6969C15.1251 36.1656 14.4897 36.4292 13.8269 36.43ZM31.3269 28.93C30.0013 28.9315 28.7304 29.4588 27.793 30.3962C26.8557 31.3335 26.3284 32.6044 26.3269 33.93C26.3269 35.2561 26.8537 36.5279 27.7913 37.4656C28.729 38.4032 30.0008 38.93 31.3269 38.93C32.653 38.93 33.9247 38.4032 34.8624 37.4656C35.8001 36.5279 36.3269 35.2561 36.3269 33.93C36.3254 32.6044 35.7981 31.3335 34.8608 30.3961C33.9234 29.4588 32.6525 28.9315 31.3269 28.93ZM31.3269 36.43C30.8324 36.43 30.3491 36.2834 29.938 36.0087C29.5268 35.734 29.2064 35.3436 29.0172 34.8867C28.828 34.4299 28.7785 33.9273 28.8749 33.4423C28.9714 32.9573 29.2095 32.5119 29.5591 32.1623C29.9087 31.8126 30.3542 31.5745 30.8391 31.4781C31.3241 31.3816 31.8268 31.4311 32.2836 31.6203C32.7404 31.8095 33.1308 32.13 33.4055 32.5411C33.6803 32.9522 33.8269 33.4356 33.8269 33.93C33.8261 34.5928 33.5624 35.2283 33.0938 35.6969C32.6251 36.1656 31.9897 36.4292 31.3269 36.43Z" fill="white"/>
</svg>
